{
  "asset": {
    "generator": "Khronos glTF Blender I/O v3.6.27",
    "version": "2.0"
  },
  "scene": 0,
  "scenes": [
    {
      "name": "Scene",
      "nodes": [7]
    }
  ],
  "nodes": [
    {
      "name": "Bone.006",
      "translation": [0, 3, 0]
    },
    {
      "children": [0],
      "name": "Bone.004",
      "translation": [0, 3, 0]
    },
    {
      "children": [1],
      "name": "Bone.003",
      "translation": [0, 3, 0]
    },
    {
      "children": [2],
      "name": "Bone.002",
      "translation": [0, 3, 0]
    },
    {
      "children": [3],
      "name": "Bone.001",
      "rotation": [0, 0, -3.700743525707937e-17, 1],
      "translation": [0, 3, 0]
    },
    {
      "children": [4],
      "name": "Bone",
      "rotation": [
        -0.7071067690849304, 2.6168207748333528e-17, 2.6168207748333528e-17,
        0.7071067690849304
      ],
      "translation": [0, 0, 9]
    },
    {
      "mesh": 0,
      "name": "Cube",
      "skin": 0
    },
    {
      "children": [6, 5],
      "name": "Armature"
    }
  ],
  "animations": [
    {
      "channels": [
        {
          "sampler": 0,
          "target": {
            "node": 5,
            "path": "translation"
          }
        },
        {
          "sampler": 1,
          "target": {
            "node": 5,
            "path": "rotation"
          }
        },
        {
          "sampler": 2,
          "target": {
            "node": 4,
            "path": "translation"
          }
        },
        {
          "sampler": 3,
          "target": {
            "node": 4,
            "path": "rotation"
          }
        },
        {
          "sampler": 4,
          "target": {
            "node": 3,
            "path": "translation"
          }
        },
        {
          "sampler": 5,
          "target": {
            "node": 3,
            "path": "rotation"
          }
        },
        {
          "sampler": 6,
          "target": {
            "node": 2,
            "path": "translation"
          }
        },
        {
          "sampler": 7,
          "target": {
            "node": 2,
            "path": "rotation"
          }
        },
        {
          "sampler": 8,
          "target": {
            "node": 1,
            "path": "translation"
          }
        },
        {
          "sampler": 9,
          "target": {
            "node": 1,
            "path": "rotation"
          }
        },
        {
          "sampler": 10,
          "target": {
            "node": 0,
            "path": "translation"
          }
        },
        {
          "sampler": 11,
          "target": {
            "node": 0,
            "path": "rotation"
          }
        }
      ],
      "name": "ArmatureAction",
      "samplers": [
        {
          "input": 7,
          "interpolation": "CUBICSPLINE",
          "output": 8
        },
        {
          "input": 7,
          "interpolation": "CUBICSPLINE",
          "output": 9
        },
        {
          "input": 7,
          "interpolation": "CUBICSPLINE",
          "output": 10
        },
        {
          "input": 7,
          "interpolation": "CUBICSPLINE",
          "output": 11
        },
        {
          "input": 7,
          "interpolation": "CUBICSPLINE",
          "output": 12
        },
        {
          "input": 7,
          "interpolation": "CUBICSPLINE",
          "output": 13
        },
        {
          "input": 7,
          "interpolation": "CUBICSPLINE",
          "output": 14
        },
        {
          "input": 7,
          "interpolation": "CUBICSPLINE",
          "output": 15
        },
        {
          "input": 7,
          "interpolation": "CUBICSPLINE",
          "output": 16
        },
        {
          "input": 7,
          "interpolation": "CUBICSPLINE",
          "output": 17
        },
        {
          "input": 7,
          "interpolation": "CUBICSPLINE",
          "output": 18
        },
        {
          "input": 7,
          "interpolation": "CUBICSPLINE",
          "output": 19
        }
      ]
    }
  ],
  "materials": [
    {
      "doubleSided": true,
      "name": "Material",
      "pbrMetallicRoughness": {
        "baseColorFactor": [
          0.800000011920929, 0.800000011920929, 0.800000011920929, 1
        ],
        "metallicFactor": 0,
        "roughnessFactor": 0.5
      }
    }
  ],
  "meshes": [
    {
      "name": "Cube",
      "primitives": [
        {
          "attributes": {
            "POSITION": 0,
            "NORMAL": 1,
            "TEXCOORD_0": 2,
            "JOINTS_0": 3,
            "WEIGHTS_0": 4
          },
          "indices": 5,
          "material": 0
        }
      ]
    }
  ],
  "skins": [
    {
      "inverseBindMatrices": 6,
      "joints": [5, 4, 3, 2, 1, 0],
      "name": "Armature"
    }
  ],
  "accessors": [
    {
      "bufferView": 0,
      "componentType": 5126,
      "count": 464,
      "max": [0.9166667461395264, 0.9166667461395264, 8.868688583374023],
      "min": [-0.9166667461395264, -0.9166666865348816, -8.868688583374023],
      "type": "VEC3"
    },
    {
      "bufferView": 1,
      "componentType": 5126,
      "count": 464,
      "type": "VEC3"
    },
    {
      "bufferView": 2,
      "componentType": 5126,
      "count": 464,
      "type": "VEC2"
    },
    {
      "bufferView": 3,
      "componentType": 5121,
      "count": 464,
      "type": "VEC4"
    },
    {
      "bufferView": 4,
      "componentType": 5126,
      "count": 464,
      "type": "VEC4"
    },
    {
      "bufferView": 5,
      "componentType": 5123,
      "count": 1104,
      "type": "SCALAR"
    },
    {
      "bufferView": 6,
      "componentType": 5126,
      "count": 6,
      "type": "MAT4"
    },
    {
      "bufferView": 7,
      "componentType": 5126,
      "count": 2,
      "max": [0.5],
      "min": [0],
      "type": "SCALAR"
    },
    {
      "bufferView": 8,
      "componentType": 5126,
      "count": 6,
      "type": "VEC3"
    },
    {
      "bufferView": 9,
      "componentType": 5126,
      "count": 6,
      "type": "VEC4"
    },
    {
      "bufferView": 10,
      "componentType": 5126,
      "count": 6,
      "type": "VEC3"
    },
    {
      "bufferView": 11,
      "componentType": 5126,
      "count": 6,
      "type": "VEC4"
    },
    {
      "bufferView": 12,
      "componentType": 5126,
      "count": 6,
      "type": "VEC3"
    },
    {
      "bufferView": 13,
      "componentType": 5126,
      "count": 6,
      "type": "VEC4"
    },
    {
      "bufferView": 14,
      "componentType": 5126,
      "count": 6,
      "type": "VEC3"
    },
    {
      "bufferView": 15,
      "componentType": 5126,
      "count": 6,
      "type": "VEC4"
    },
    {
      "bufferView": 16,
      "componentType": 5126,
      "count": 6,
      "type": "VEC3"
    },
    {
      "bufferView": 17,
      "componentType": 5126,
      "count": 6,
      "type": "VEC4"
    },
    {
      "bufferView": 18,
      "componentType": 5126,
      "count": 6,
      "type": "VEC3"
    },
    {
      "bufferView": 19,
      "componentType": 5126,
      "count": 6,
      "type": "VEC4"
    }
  ],
  "bufferViews": [
    {
      "buffer": 0,
      "byteLength": 5568,
      "byteOffset": 0,
      "target": 34962
    },
    {
      "buffer": 0,
      "byteLength": 5568,
      "byteOffset": 5568,
      "target": 34962
    },
    {
      "buffer": 0,
      "byteLength": 3712,
      "byteOffset": 11136,
      "target": 34962
    },
    {
      "buffer": 0,
      "byteLength": 1856,
      "byteOffset": 14848,
      "target": 34962
    },
    {
      "buffer": 0,
      "byteLength": 7424,
      "byteOffset": 16704,
      "target": 34962
    },
    {
      "buffer": 0,
      "byteLength": 2208,
      "byteOffset": 24128,
      "target": 34963
    },
    {
      "buffer": 0,
      "byteLength": 384,
      "byteOffset": 26336
    },
    {
      "buffer": 0,
      "byteLength": 8,
      "byteOffset": 26720
    },
    {
      "buffer": 0,
      "byteLength": 72,
      "byteOffset": 26728
    },
    {
      "buffer": 0,
      "byteLength": 96,
      "byteOffset": 26800
    },
    {
      "buffer": 0,
      "byteLength": 72,
      "byteOffset": 26896
    },
    {
      "buffer": 0,
      "byteLength": 96,
      "byteOffset": 26968
    },
    {
      "buffer": 0,
      "byteLength": 72,
      "byteOffset": 27064
    },
    {
      "buffer": 0,
      "byteLength": 96,
      "byteOffset": 27136
    },
    {
      "buffer": 0,
      "byteLength": 72,
      "byteOffset": 27232
    },
    {
      "buffer": 0,
      "byteLength": 96,
      "byteOffset": 27304
    },
    {
      "buffer": 0,
      "byteLength": 72,
      "byteOffset": 27400
    },
    {
      "buffer": 0,
      "byteLength": 96,
      "byteOffset": 27472
    },
    {
      "buffer": 0,
      "byteLength": 72,
      "byteOffset": 27568
    },
    {
      "buffer": 0,
      "byteLength": 96,
      "byteOffset": 27640
    }
  ],
  "buffers": [
    {
      "byteLength": 27736,
      "uri": "data:application/octet-stream;base64,"
    }
  ]
}
