<?xml version="1.0" encoding="utf-8"?><!-- Uploaded to: SVG Repo, www.svgrepo.com, Generator: SVG Repo Mixer Tools -->
<svg width="800px" height="800px" viewBox="0 0 16 16" fill="none" xmlns="http://www.w3.org/2000/svg">
<path d="M15.2678 7.26777C14.2915 8.24408 12.7085 8.24408 11.7322 7.26777L11.6465 7.18199L7.182 11.6464L7.26777 11.7322C8.24408 12.7085 8.24408 14.2914 7.26777 15.2677C6.29146 16.244 4.70854 16.244 3.73223 15.2677C3.24408 14.7796 2.99998 14.1398 2.99998 13.5V13H2.50434C1.86309 13.0011 1.22149 12.757 0.732233 12.2677C-0.244078 11.2914 -0.244078 9.70852 0.732233 8.7322C1.70854 7.75589 3.29146 7.75589 4.26777 8.7322L4.35358 8.81802L8.81803 4.35356L8.73223 4.26777C7.75592 3.29146 7.75592 1.70854 8.73223 0.732233C9.70854 -0.244078 11.2915 -0.244078 12.2678 0.732233C12.7581 1.22255 13.0022 1.85737 13 2.5V3H13.5C14.1398 3 14.7796 3.24407 15.2678 3.73223C16.2441 4.70854 16.2441 6.29146 15.2678 7.26777Z" fill="#ffffff"/>
</svg>
