<?xml version="1.0" encoding="iso-8859-1"?>
<!-- Uploaded to: SVG Repo, www.svgrepo.com, Generator: SVG Repo Mixer Tools -->
<!DOCTYPE svg PUBLIC "-//W3C//DTD SVG 1.1//EN" "http://www.w3.org/Graphics/SVG/1.1/DTD/svg11.dtd">
<svg fill="#ffffff" height="800px" width="800px" version="1.1" id="Capa_1" xmlns="http://www.w3.org/2000/svg" xmlns:xlink="http://www.w3.org/1999/xlink" 
	 viewBox="0 0 213.134 213.134" xml:space="preserve">
<g>
	<path d="M90.063,107.15c6.079,0.627,12.019-1.272,16.505-5.133c3.923,3.377,8.908,5.251,14.209,5.251
		c0.76,0,1.532-0.04,2.294-0.118c10.153-1.042,18.335-9.157,19.453-19.293c0.78-7.068-1.905-14.098-7.183-18.806
		c-6.714-5.991-10.564-14.245-10.564-22.646V4c0-2.209-1.791-4-4-4H92.358c-2.209,0-4,1.791-4,4v42.405
		c0,8.4-3.851,16.655-10.565,22.646c-5.276,4.708-7.962,11.738-7.183,18.807C71.729,97.993,79.909,106.107,90.063,107.15z"/>
	<path d="M146.091,115.97c-0.004-0.036-0.007-0.07-0.01-0.09c-0.421-3.683-3.565-6.46-7.313-6.46c-1.974,0-3.836,0.771-5.243,2.169
		c-2.578,2.56-5.943,4.17-9.475,4.533c-3.685,0.377-7.33-0.506-10.376-2.515c-2.106-1.389-4.564-2.123-7.106-2.123
		c-2.543,0-5,0.734-7.105,2.123c-3.047,2.008-6.699,2.894-10.377,2.515c-3.532-0.363-6.897-1.973-9.475-4.533
		c-1.408-1.398-3.271-2.169-5.244-2.169c-3.748,0-6.893,2.778-7.323,6.551c-0.859,7.787,2.123,15.504,7.977,20.646
		c7.469,6.561,11.753,15.628,11.753,24.879v47.639c0,2.209,1.791,4,4,4h31.589c2.209,0,4-1.791,4-4v-47.639
		c0-9.25,4.284-18.318,11.753-24.879C143.969,131.474,146.951,123.756,146.091,115.97z"/>
</g>
</svg>
